<mxfile host="app.diagrams.net" modified="2024-05-09T16:22:16.807Z" agent="Mozilla/5.0 (Windows NT 10.0; Win64; x64) AppleWebKit/537.36 (KHTML, like Gecko) Chrome/123.0.0.0 Safari/537.36 OPR/109.0.0.0" etag="kd2oj6AVUPDq2nFl363g" version="24.3.1" type="device">
  <diagram name="Сторінка-1" id="nPuCRAKkdzcw8fEWUsdb">
    <mxGraphModel dx="588" dy="1204" grid="1" gridSize="10" guides="1" tooltips="1" connect="1" arrows="1" fold="1" page="1" pageScale="1" pageWidth="827" pageHeight="1169" math="0" shadow="0">
      <root>
        <mxCell id="0" />
        <mxCell id="1" parent="0" />
        <mxCell id="XHLxn2AQJ1fGGYJsgmQ_-3" value="&lt;font style=&quot;font-size: 15px;&quot;&gt;Input feature set&lt;/font&gt;&lt;div style=&quot;font-size: 15px;&quot;&gt;&lt;font style=&quot;font-size: 15px;&quot;&gt;V&lt;sub&gt;n&lt;/sub&gt; = {(x&lt;sub&gt;1&lt;/sub&gt;, y&lt;sub&gt;1&lt;/sub&gt;), (x&lt;sub&gt;2&lt;/sub&gt;, y&lt;sub&gt;2&lt;/sub&gt;), ..., (x&lt;sub&gt;n&lt;/sub&gt;, y&lt;sub&gt;n&lt;/sub&gt;)}&lt;/font&gt;&lt;/div&gt;" style="rounded=0;whiteSpace=wrap;html=1;" vertex="1" parent="1">
          <mxGeometry x="1960" y="40" width="330" height="100" as="geometry" />
        </mxCell>
        <mxCell id="XHLxn2AQJ1fGGYJsgmQ_-4" value="" style="endArrow=classic;html=1;rounded=0;exitX=0.25;exitY=1;exitDx=0;exitDy=0;entryX=0.5;entryY=0;entryDx=0;entryDy=0;" edge="1" parent="1" source="XHLxn2AQJ1fGGYJsgmQ_-3" target="XHLxn2AQJ1fGGYJsgmQ_-7">
          <mxGeometry width="50" height="50" relative="1" as="geometry">
            <mxPoint x="1690" y="380" as="sourcePoint" />
            <mxPoint x="1930" y="250" as="targetPoint" />
          </mxGeometry>
        </mxCell>
        <mxCell id="XHLxn2AQJ1fGGYJsgmQ_-5" value="" style="endArrow=classic;html=1;rounded=0;exitX=0.5;exitY=1;exitDx=0;exitDy=0;entryX=0.5;entryY=0;entryDx=0;entryDy=0;" edge="1" parent="1" source="XHLxn2AQJ1fGGYJsgmQ_-3" target="XHLxn2AQJ1fGGYJsgmQ_-8">
          <mxGeometry width="50" height="50" relative="1" as="geometry">
            <mxPoint x="2053" y="150" as="sourcePoint" />
            <mxPoint x="2125" y="250" as="targetPoint" />
          </mxGeometry>
        </mxCell>
        <mxCell id="XHLxn2AQJ1fGGYJsgmQ_-6" value="" style="endArrow=classic;html=1;rounded=0;exitX=0.75;exitY=1;exitDx=0;exitDy=0;entryX=0.5;entryY=0;entryDx=0;entryDy=0;" edge="1" parent="1" source="XHLxn2AQJ1fGGYJsgmQ_-3" target="XHLxn2AQJ1fGGYJsgmQ_-9">
          <mxGeometry width="50" height="50" relative="1" as="geometry">
            <mxPoint x="2233" y="140" as="sourcePoint" />
            <mxPoint x="2310" y="250" as="targetPoint" />
          </mxGeometry>
        </mxCell>
        <mxCell id="XHLxn2AQJ1fGGYJsgmQ_-7" value="&lt;font style=&quot;font-size: 15px;&quot;&gt;Bootstrap&lt;/font&gt;&lt;div style=&quot;font-size: 15px;&quot;&gt;&lt;font style=&quot;font-size: 15px;&quot;&gt;samples&lt;/font&gt;&lt;/div&gt;&lt;div style=&quot;font-size: 15px;&quot;&gt;&lt;font style=&quot;font-size: 15px;&quot;&gt;&lt;br&gt;&lt;/font&gt;&lt;/div&gt;&lt;div style=&quot;font-size: 15px;&quot;&gt;&lt;font style=&quot;font-size: 15px;&quot;&gt;V&lt;sub style=&quot;&quot;&gt;1&lt;/sub&gt;&lt;/font&gt;&lt;/div&gt;" style="ellipse;whiteSpace=wrap;html=1;aspect=fixed;" vertex="1" parent="1">
          <mxGeometry x="1840" y="250" width="120" height="120" as="geometry" />
        </mxCell>
        <mxCell id="XHLxn2AQJ1fGGYJsgmQ_-8" value="&lt;font style=&quot;font-size: 15px;&quot;&gt;Bootstrap&lt;/font&gt;&lt;div style=&quot;font-size: 15px;&quot;&gt;&lt;font style=&quot;font-size: 15px;&quot;&gt;samples&lt;/font&gt;&lt;/div&gt;&lt;div style=&quot;font-size: 15px;&quot;&gt;&lt;font style=&quot;font-size: 15px;&quot;&gt;&lt;br&gt;&lt;/font&gt;&lt;/div&gt;&lt;div style=&quot;font-size: 15px;&quot;&gt;&lt;font style=&quot;font-size: 15px;&quot;&gt;V2&lt;/font&gt;&lt;/div&gt;" style="ellipse;whiteSpace=wrap;html=1;aspect=fixed;" vertex="1" parent="1">
          <mxGeometry x="2065" y="250" width="120" height="120" as="geometry" />
        </mxCell>
        <mxCell id="XHLxn2AQJ1fGGYJsgmQ_-9" value="&lt;font style=&quot;font-size: 15px;&quot;&gt;Bootstrap&lt;/font&gt;&lt;div style=&quot;font-size: 15px;&quot;&gt;&lt;font style=&quot;font-size: 15px;&quot;&gt;samples&lt;/font&gt;&lt;/div&gt;&lt;div style=&quot;font-size: 15px;&quot;&gt;&lt;font style=&quot;font-size: 15px;&quot;&gt;&lt;br&gt;&lt;/font&gt;&lt;/div&gt;&lt;div style=&quot;font-size: 15px;&quot;&gt;&lt;font style=&quot;font-size: 15px;&quot;&gt;Vk&lt;/font&gt;&lt;/div&gt;" style="ellipse;whiteSpace=wrap;html=1;aspect=fixed;" vertex="1" parent="1">
          <mxGeometry x="2290" y="250" width="120" height="120" as="geometry" />
        </mxCell>
        <mxCell id="XHLxn2AQJ1fGGYJsgmQ_-12" value="" style="endArrow=none;dashed=1;html=1;rounded=0;exitX=1;exitY=0.5;exitDx=0;exitDy=0;entryX=0;entryY=0.5;entryDx=0;entryDy=0;" edge="1" parent="1" source="XHLxn2AQJ1fGGYJsgmQ_-8" target="XHLxn2AQJ1fGGYJsgmQ_-9">
          <mxGeometry width="50" height="50" relative="1" as="geometry">
            <mxPoint x="1730" y="380" as="sourcePoint" />
            <mxPoint x="1780" y="330" as="targetPoint" />
          </mxGeometry>
        </mxCell>
        <mxCell id="XHLxn2AQJ1fGGYJsgmQ_-13" value="&lt;font style=&quot;font-size: 15px;&quot;&gt;Tree 1&lt;/font&gt;" style="ellipse;shape=cloud;whiteSpace=wrap;html=1;" vertex="1" parent="1">
          <mxGeometry x="1815" y="470" width="170" height="110" as="geometry" />
        </mxCell>
        <mxCell id="XHLxn2AQJ1fGGYJsgmQ_-14" value="&lt;font style=&quot;font-size: 15px;&quot;&gt;Tree 2&lt;/font&gt;" style="ellipse;shape=cloud;whiteSpace=wrap;html=1;" vertex="1" parent="1">
          <mxGeometry x="2040" y="470" width="170" height="110" as="geometry" />
        </mxCell>
        <mxCell id="XHLxn2AQJ1fGGYJsgmQ_-15" value="&lt;font style=&quot;font-size: 15px;&quot;&gt;Tree k&lt;/font&gt;" style="ellipse;shape=cloud;whiteSpace=wrap;html=1;" vertex="1" parent="1">
          <mxGeometry x="2265" y="470" width="170" height="110" as="geometry" />
        </mxCell>
        <mxCell id="XHLxn2AQJ1fGGYJsgmQ_-16" value="" style="endArrow=none;dashed=1;html=1;rounded=0;exitX=0.875;exitY=0.5;exitDx=0;exitDy=0;entryX=0.16;entryY=0.55;entryDx=0;entryDy=0;exitPerimeter=0;entryPerimeter=0;" edge="1" parent="1" source="XHLxn2AQJ1fGGYJsgmQ_-14" target="XHLxn2AQJ1fGGYJsgmQ_-15">
          <mxGeometry width="50" height="50" relative="1" as="geometry">
            <mxPoint x="2210" y="450" as="sourcePoint" />
            <mxPoint x="2315" y="450" as="targetPoint" />
          </mxGeometry>
        </mxCell>
        <mxCell id="XHLxn2AQJ1fGGYJsgmQ_-17" value="" style="endArrow=none;html=1;rounded=0;exitX=0.5;exitY=1;exitDx=0;exitDy=0;entryX=0.625;entryY=0.2;entryDx=0;entryDy=0;entryPerimeter=0;" edge="1" parent="1" source="XHLxn2AQJ1fGGYJsgmQ_-7" target="XHLxn2AQJ1fGGYJsgmQ_-13">
          <mxGeometry width="50" height="50" relative="1" as="geometry">
            <mxPoint x="1930" y="350" as="sourcePoint" />
            <mxPoint x="1980" y="300" as="targetPoint" />
          </mxGeometry>
        </mxCell>
        <mxCell id="XHLxn2AQJ1fGGYJsgmQ_-18" value="" style="endArrow=none;html=1;rounded=0;exitX=0.5;exitY=1;exitDx=0;exitDy=0;entryX=0.625;entryY=0.2;entryDx=0;entryDy=0;entryPerimeter=0;" edge="1" parent="1" source="XHLxn2AQJ1fGGYJsgmQ_-8" target="XHLxn2AQJ1fGGYJsgmQ_-14">
          <mxGeometry width="50" height="50" relative="1" as="geometry">
            <mxPoint x="1910" y="380" as="sourcePoint" />
            <mxPoint x="1931" y="502" as="targetPoint" />
          </mxGeometry>
        </mxCell>
        <mxCell id="XHLxn2AQJ1fGGYJsgmQ_-19" value="" style="endArrow=none;html=1;rounded=0;exitX=0.5;exitY=1;exitDx=0;exitDy=0;entryX=0.625;entryY=0.2;entryDx=0;entryDy=0;entryPerimeter=0;" edge="1" parent="1" source="XHLxn2AQJ1fGGYJsgmQ_-9" target="XHLxn2AQJ1fGGYJsgmQ_-15">
          <mxGeometry width="50" height="50" relative="1" as="geometry">
            <mxPoint x="1920" y="390" as="sourcePoint" />
            <mxPoint x="1941" y="512" as="targetPoint" />
          </mxGeometry>
        </mxCell>
        <mxCell id="XHLxn2AQJ1fGGYJsgmQ_-21" value="&lt;font style=&quot;font-size: 15px;&quot;&gt;Prediction&lt;/font&gt;&lt;div&gt;&lt;font style=&quot;font-size: 15px;&quot;&gt;&lt;br&gt;&lt;/font&gt;&lt;/div&gt;&lt;div&gt;&lt;font style=&quot;font-size: 15px;&quot;&gt;A` = r`(X, V&lt;sub&gt;1&lt;/sub&gt;)&lt;/font&gt;&lt;/div&gt;" style="whiteSpace=wrap;html=1;aspect=fixed;" vertex="1" parent="1">
          <mxGeometry x="1810" y="640" width="180" height="180" as="geometry" />
        </mxCell>
        <mxCell id="XHLxn2AQJ1fGGYJsgmQ_-23" value="&lt;font style=&quot;font-size: 15px;&quot;&gt;Prediction&lt;/font&gt;&lt;div&gt;&lt;font style=&quot;font-size: 15px;&quot;&gt;&lt;br&gt;&lt;/font&gt;&lt;/div&gt;&lt;div&gt;&lt;font style=&quot;font-size: 15px;&quot;&gt;A` = r`(X, V&lt;/font&gt;&lt;font style=&quot;&quot;&gt;&lt;span style=&quot;font-size: 12.5px;&quot;&gt;2&lt;/span&gt;&lt;span style=&quot;font-size: 15px;&quot;&gt;)&lt;/span&gt;&lt;/font&gt;&lt;/div&gt;" style="whiteSpace=wrap;html=1;aspect=fixed;" vertex="1" parent="1">
          <mxGeometry x="2035" y="640" width="180" height="180" as="geometry" />
        </mxCell>
        <mxCell id="XHLxn2AQJ1fGGYJsgmQ_-24" value="&lt;font style=&quot;font-size: 15px;&quot;&gt;Prediction&lt;/font&gt;&lt;div&gt;&lt;font style=&quot;font-size: 15px;&quot;&gt;&lt;br&gt;&lt;/font&gt;&lt;/div&gt;&lt;div&gt;&lt;font style=&quot;font-size: 15px;&quot;&gt;A` = r`(X, V&lt;/font&gt;&lt;font style=&quot;&quot;&gt;&lt;span style=&quot;font-size: 12.5px;&quot;&gt;k&lt;/span&gt;&lt;span style=&quot;font-size: 15px;&quot;&gt;)&lt;/span&gt;&lt;/font&gt;&lt;/div&gt;" style="whiteSpace=wrap;html=1;aspect=fixed;" vertex="1" parent="1">
          <mxGeometry x="2260" y="640" width="180" height="180" as="geometry" />
        </mxCell>
        <mxCell id="XHLxn2AQJ1fGGYJsgmQ_-25" value="" style="endArrow=classic;html=1;rounded=0;exitX=0.55;exitY=0.95;exitDx=0;exitDy=0;exitPerimeter=0;entryX=0.5;entryY=0;entryDx=0;entryDy=0;" edge="1" parent="1" source="XHLxn2AQJ1fGGYJsgmQ_-13" target="XHLxn2AQJ1fGGYJsgmQ_-21">
          <mxGeometry width="50" height="50" relative="1" as="geometry">
            <mxPoint x="1710" y="470" as="sourcePoint" />
            <mxPoint x="1760" y="420" as="targetPoint" />
          </mxGeometry>
        </mxCell>
        <mxCell id="XHLxn2AQJ1fGGYJsgmQ_-26" value="" style="endArrow=classic;html=1;rounded=0;exitX=0.55;exitY=0.95;exitDx=0;exitDy=0;exitPerimeter=0;entryX=0.5;entryY=0;entryDx=0;entryDy=0;" edge="1" parent="1" source="XHLxn2AQJ1fGGYJsgmQ_-14" target="XHLxn2AQJ1fGGYJsgmQ_-23">
          <mxGeometry width="50" height="50" relative="1" as="geometry">
            <mxPoint x="1919" y="585" as="sourcePoint" />
            <mxPoint x="1910" y="650" as="targetPoint" />
          </mxGeometry>
        </mxCell>
        <mxCell id="XHLxn2AQJ1fGGYJsgmQ_-27" value="" style="endArrow=classic;html=1;rounded=0;exitX=0.55;exitY=0.95;exitDx=0;exitDy=0;exitPerimeter=0;entryX=0.5;entryY=0;entryDx=0;entryDy=0;" edge="1" parent="1" source="XHLxn2AQJ1fGGYJsgmQ_-15" target="XHLxn2AQJ1fGGYJsgmQ_-24">
          <mxGeometry width="50" height="50" relative="1" as="geometry">
            <mxPoint x="1929" y="595" as="sourcePoint" />
            <mxPoint x="1920" y="660" as="targetPoint" />
          </mxGeometry>
        </mxCell>
        <mxCell id="XHLxn2AQJ1fGGYJsgmQ_-28" value="&lt;font style=&quot;font-size: 15px;&quot;&gt;Predicted output&lt;/font&gt;&lt;div style=&quot;font-size: 15px;&quot;&gt;&lt;font style=&quot;font-size: 15px;&quot;&gt;&lt;br&gt;&lt;/font&gt;&lt;/div&gt;&lt;div style=&quot;font-size: 15px;&quot;&gt;&lt;font style=&quot;font-size: 15px;&quot;&gt;&lt;font style=&quot;font-size: 15px;&quot;&gt;&lt;span style=&quot;background-color: transparent; font-family: &amp;quot;Times New Roman&amp;quot;, serif; white-space-collapse: preserve;&quot;&gt;λ = 1/k * &lt;/span&gt;&lt;/font&gt;&lt;span style=&quot;background-color: transparent; font-family: &amp;quot;Times New Roman&amp;quot;, serif; white-space-collapse: preserve;&quot;&gt;Σ r`(X, V&lt;sub&gt;i&lt;/sub&gt;)&lt;/span&gt;&lt;span style=&quot;background-color: initial;&quot;&gt;&amp;nbsp;&lt;/span&gt;&lt;/font&gt;&lt;/div&gt;" style="rounded=1;whiteSpace=wrap;html=1;" vertex="1" parent="1">
          <mxGeometry x="1890" y="970" width="470" height="120" as="geometry" />
        </mxCell>
        <mxCell id="XHLxn2AQJ1fGGYJsgmQ_-29" value="" style="endArrow=classic;html=1;rounded=0;entryX=0.5;entryY=0;entryDx=0;entryDy=0;exitX=0.5;exitY=1;exitDx=0;exitDy=0;" edge="1" parent="1" source="XHLxn2AQJ1fGGYJsgmQ_-21" target="XHLxn2AQJ1fGGYJsgmQ_-28">
          <mxGeometry width="50" height="50" relative="1" as="geometry">
            <mxPoint x="2000" y="710" as="sourcePoint" />
            <mxPoint x="2050" y="660" as="targetPoint" />
          </mxGeometry>
        </mxCell>
        <mxCell id="XHLxn2AQJ1fGGYJsgmQ_-30" value="" style="endArrow=classic;html=1;rounded=0;entryX=0.5;entryY=0;entryDx=0;entryDy=0;exitX=0.5;exitY=1;exitDx=0;exitDy=0;" edge="1" parent="1" source="XHLxn2AQJ1fGGYJsgmQ_-23" target="XHLxn2AQJ1fGGYJsgmQ_-28">
          <mxGeometry width="50" height="50" relative="1" as="geometry">
            <mxPoint x="1910" y="830" as="sourcePoint" />
            <mxPoint x="2135" y="980" as="targetPoint" />
          </mxGeometry>
        </mxCell>
        <mxCell id="XHLxn2AQJ1fGGYJsgmQ_-31" value="" style="endArrow=classic;html=1;rounded=0;entryX=0.5;entryY=0;entryDx=0;entryDy=0;exitX=0.5;exitY=1;exitDx=0;exitDy=0;" edge="1" parent="1" source="XHLxn2AQJ1fGGYJsgmQ_-24" target="XHLxn2AQJ1fGGYJsgmQ_-28">
          <mxGeometry width="50" height="50" relative="1" as="geometry">
            <mxPoint x="1920" y="840" as="sourcePoint" />
            <mxPoint x="2145" y="990" as="targetPoint" />
          </mxGeometry>
        </mxCell>
      </root>
    </mxGraphModel>
  </diagram>
</mxfile>
